# Blender v3.0.0 OBJ File: 'furniturePack.blend'
# www.blender.org
mtllib toilet1.mtl
o toilet_1_Cube.033
v -4.266719 0.691293 11.674691
v -4.266719 0.691293 11.017777
v -3.614835 0.691293 11.674691
v -3.456245 0.691293 11.546149
v -3.456245 0.691293 11.146319
v -3.614835 0.691293 11.017777
v -3.374535 0.369132 11.564469
v -3.582773 0.254464 11.733253
v -3.582773 0.254464 10.959216
v -3.374535 0.369132 11.127999
v -4.329510 0.691293 11.733253
v -4.329510 0.691293 10.959216
v -3.374535 0.691293 11.564469
v -3.582773 0.691293 11.733253
v -3.582773 0.691293 10.959216
v -3.374535 0.691293 11.127999
v -4.265754 0.249138 11.674691
v -4.265754 0.249138 11.017777
v -3.581256 0.280067 11.546149
v -3.746188 0.272615 11.674691
v -3.746188 0.272615 11.017777
v -3.581256 0.280067 11.146319
v -4.266719 0.189205 11.472631
v -4.266719 0.189205 11.219838
v -4.047147 0.189205 11.444623
v -4.081700 0.189205 11.472631
v -4.081700 0.189205 11.219838
v -4.047147 0.189205 11.247846
v -4.265754 0.249138 11.481585
v -4.266719 0.216240 11.472631
v -4.266719 0.229865 11.456693
v -4.266719 0.216240 11.219838
v -4.265754 0.249138 11.210884
v -4.266719 0.229865 11.235777
v -4.023693 0.260076 11.448731
v -4.047147 0.216240 11.444623
v -4.081700 0.216240 11.472631
v -4.064850 0.258216 11.482677
v -4.064850 0.258216 11.209791
v -4.081700 0.216240 11.219838
v -4.047147 0.216240 11.247846
v -4.023693 0.260076 11.243737
v -4.329510 0.165427 11.186752
v -4.329510 0.165427 11.505716
v -4.329510 0.691293 11.505716
v -4.329510 0.691293 11.186752
v -3.744465 0.165427 11.505716
v -3.744465 0.165427 11.186752
v -4.266719 0.691293 11.481585
v -4.266719 0.691293 11.210884
v -4.236203 0.691293 11.033684
v -4.236203 0.691293 11.658785
v -3.617433 0.691293 11.658785
v -3.617433 0.691293 11.033684
v -4.236203 0.691293 11.121999
v -4.236203 0.691293 11.570470
v -3.464979 0.691293 11.535216
v -3.464979 0.691293 11.157252
v -4.236413 0.691293 11.570470
v -3.464770 0.691293 11.535287
v -4.236413 0.691293 11.121999
v -3.464770 0.691293 11.157182
v -4.236413 0.691293 11.658955
v -3.617346 0.691293 11.033514
v -3.617346 0.691293 11.658955
v -4.236413 0.691293 11.033514
v -4.329510 0.691293 11.570470
v -4.329510 0.691293 11.743894
v -3.359975 0.691293 11.121999
v -3.573938 0.691293 10.948575
v -3.573938 0.691293 11.743894
v -4.329510 0.691293 10.948575
v -4.329510 0.691293 11.121999
v -3.359975 0.691293 11.570470
v -4.253114 0.720583 11.018199
v -4.253114 0.720583 11.674270
v -3.603688 0.720583 11.674270
v -3.603688 0.720583 11.018199
v -4.253114 0.720583 11.110889
v -4.253114 0.720583 11.581579
v -3.443681 0.720583 11.544579
v -3.443681 0.720583 11.147890
v -4.253334 0.749874 11.581579
v -4.253334 0.749874 11.674447
v -3.443462 0.749874 11.147816
v -3.603597 0.749874 11.018022
v -3.603597 0.749874 11.674447
v -4.253334 0.749874 11.018022
v -4.253334 0.749874 11.110889
v -3.443462 0.749874 11.544653
v -4.329510 0.749874 11.581579
v -4.329510 0.749874 11.763595
v -3.333475 0.749874 11.110889
v -3.558039 0.749874 10.928874
v -3.558039 0.749874 11.763595
v -4.329510 0.749874 10.928874
v -4.329510 0.749874 11.110889
v -3.333475 0.749874 11.581579
v -4.253334 0.720583 11.581579
v -3.443462 0.720583 11.544653
v -4.253334 0.720583 11.110889
v -3.443462 0.720583 11.147816
v -4.253334 0.720583 11.674447
v -3.603597 0.720583 11.018022
v -3.603597 0.720583 11.674447
v -4.253334 0.720583 11.018022
v -4.329510 0.720583 11.581579
v -4.329510 0.720583 11.763595
v -3.333475 0.720583 11.110889
v -3.558039 0.720583 10.928874
v -3.558039 0.720583 11.763595
v -4.329510 0.720583 10.928874
v -4.329510 0.720583 11.110889
v -3.333475 0.720583 11.581579
v -4.261392 0.720583 11.570470
v -4.236413 0.708107 11.570470
v -4.236413 0.708107 11.658955
v -4.261392 0.720583 11.679200
v -3.439791 0.720583 11.148796
v -3.464770 0.708107 11.157182
v -3.617346 0.708107 11.033514
v -3.606999 0.720583 11.013268
v -3.617346 0.708107 11.658955
v -3.606999 0.720583 11.679200
v -4.236413 0.708107 11.033514
v -4.261392 0.720583 11.013268
v -4.236413 0.708107 11.121999
v -4.261392 0.720583 11.121999
v -3.464770 0.708107 11.535287
v -3.439791 0.720583 11.543673
v -4.329510 0.708107 11.570470
v -4.316229 0.720583 11.570470
v -4.316228 0.720583 11.723648
v -4.329510 0.708107 11.743894
v -3.359975 0.708107 11.121999
v -3.384953 0.720583 11.130385
v -3.584285 0.720583 10.968821
v -3.573938 0.708107 10.948575
v -3.584285 0.720583 11.723648
v -3.573938 0.708107 11.743894
v -4.316229 0.720583 10.968821
v -4.329510 0.708107 10.948575
v -4.316229 0.720583 11.121999
v -4.329510 0.708107 11.121999
v -3.384953 0.720583 11.562083
v -3.359975 0.708107 11.570470
v -4.329510 1.160100 11.140235
v -4.329510 1.160100 11.552234
v -4.329510 1.354801 11.552234
v -4.329510 1.354801 11.140235
v -4.329510 1.179785 11.267936
v -4.329510 1.179785 11.271502
v -4.327205 1.335441 11.271502
v -4.329510 1.178679 11.516445
v -4.327205 1.335441 11.267936
v -4.329510 1.336223 11.176023
v -4.329510 1.336223 11.516445
v -4.329510 1.178679 11.176023
v -4.329510 1.335117 11.267936
v -4.325346 1.178679 11.516445
v -4.329510 1.335117 11.271502
v -4.325346 1.336223 11.176023
v -4.325346 1.336223 11.516445
v -4.325346 1.178679 11.176023
v -4.329510 1.160100 11.271502
v -4.329510 1.160100 11.267936
v -4.329510 1.354801 11.267936
v -4.329510 1.354801 11.271502
v -4.329510 1.178679 11.271502
v -4.329510 1.178679 11.267936
v -4.329510 1.336223 11.271502
v -4.329510 1.336223 11.267936
v -4.325346 1.178679 11.267936
v -4.325346 1.178679 11.271502
v -4.325346 1.336223 11.267936
v -4.325346 1.336223 11.271502
v -4.327205 1.179461 11.267936
v -4.327205 1.179461 11.271502
v -4.341439 1.160100 11.140235
v -4.341439 1.160100 11.552234
v -4.341439 1.354801 11.552234
v -4.341439 1.354801 11.140235
v -4.341439 1.160100 11.271502
v -4.341439 1.160100 11.267936
v -4.341439 1.354801 11.267936
v -4.341439 1.354801 11.271502
v -4.329510 0.165427 11.567477
v -4.329510 0.267582 11.733253
v -4.329510 0.267582 10.959216
v -4.329510 0.165427 11.124991
v -3.582773 0.254464 11.733253
v -3.744465 0.165427 11.567477
v -3.744465 0.165427 11.124991
v -3.582773 0.254464 10.959216
vt 0.941322 0.492544
vt 0.948533 0.492527
vt 0.948220 0.525220
vt 0.941009 0.525237
vt 0.681359 0.058182
vt 0.693103 0.058182
vt 0.693103 0.176700
vt 0.681359 0.176700
vt 0.505401 0.169619
vt 0.493657 0.174484
vt 0.493657 0.060398
vt 0.505401 0.065263
vt 0.142787 0.886651
vt 0.149998 0.886651
vt 0.149926 0.932482
vt 0.142716 0.932482
vt 0.142787 0.768133
vt 0.149998 0.768133
vt 0.655203 0.767616
vt 0.648035 0.767616
vt 0.648035 0.721785
vt 0.655203 0.721785
vt 0.142716 0.722301
vt 0.149926 0.722301
vt 0.655203 0.886135
vt 0.648035 0.886135
vt 0.985858 0.654371
vt 0.978647 0.654371
vt 0.978647 0.492527
vt 0.985858 0.492527
vt 0.986260 0.899666
vt 0.979049 0.899666
vt 0.979049 0.737822
vt 0.986260 0.737822
vt 0.185383 0.751036
vt 0.192594 0.751036
vt 0.192594 0.869555
vt 0.185383 0.869555
vt 0.428701 0.940960
vt 0.421533 0.940960
vt 0.421533 0.841037
vt 0.428701 0.841037
vt 0.941411 0.875791
vt 0.948622 0.875808
vt 0.948935 0.908501
vt 0.941724 0.908484
vt 0.941724 0.743187
vt 0.948934 0.743204
vt 0.655203 0.931966
vt 0.648035 0.931966
vt 0.948533 0.657824
vt 0.941322 0.657841
vt 0.192594 0.892939
vt 0.185383 0.892939
vt 0.541211 0.029447
vt 0.536347 0.017701
vt 0.693103 0.017701
vt 0.681359 0.029447
vt 0.541211 0.205435
vt 0.536347 0.217181
vt 0.681359 0.205435
vt 0.693103 0.217181
vt 0.658543 0.280137
vt 0.678528 0.257645
vt 0.678528 0.303477
vt 0.658543 0.303477
vt 0.526010 0.445334
vt 0.516694 0.467826
vt 0.470865 0.421995
vt 0.493356 0.412679
vt 0.526010 0.280137
vt 0.516694 0.257645
vt 0.658543 0.445334
vt 0.678528 0.467826
vt 0.658543 0.421995
vt 0.678528 0.421995
vt 0.493356 0.312793
vt 0.470865 0.303477
vt 0.898731 0.737822
vt 0.911291 0.737852
vt 0.910963 0.877025
vt 0.898402 0.876996
vt 0.925271 0.266150
vt 0.937833 0.266150
vt 0.937833 0.390541
vt 0.925271 0.390541
vt 0.297069 0.880136
vt 0.309556 0.880136
vt 0.309556 0.985009
vt 0.297069 0.985009
vt 0.962534 0.241608
vt 0.975094 0.241608
vt 0.975094 0.406858
vt 0.962534 0.406858
vt 0.887934 0.241608
vt 0.900495 0.241608
vt 0.900570 0.289710
vt 0.888009 0.289710
vt 0.888009 0.414100
vt 0.900570 0.414100
vt 0.900495 0.462202
vt 0.887934 0.462202
vt 0.898402 0.665019
vt 0.910889 0.665019
vt 0.910889 0.713121
vt 0.898402 0.713121
vt 0.940046 0.012351
vt 0.952607 0.012350
vt 0.952607 0.177600
vt 0.940046 0.177600
vt 0.898402 0.492527
vt 0.910889 0.492527
vt 0.910889 0.540629
vt 0.898402 0.540629
vt 0.266705 0.060452
vt 0.250391 0.060452
vt 0.250391 0.012351
vt 0.266705 0.035910
vt 0.440150 0.175084
vt 0.463706 0.184842
vt 0.415612 0.232944
vt 0.405855 0.209385
vt 0.415612 0.012350
vt 0.405855 0.035910
vt 0.250391 0.232944
vt 0.266705 0.209385
vt 0.250391 0.184843
vt 0.266705 0.184843
vt 0.463706 0.060452
vt 0.440150 0.070211
vt 0.911291 0.911338
vt 0.898731 0.911308
vt 0.902784 0.012380
vt 0.915345 0.012350
vt 0.915017 0.046663
vt 0.902456 0.046692
vt 0.937833 0.415083
vt 0.925271 0.415083
vt 0.915345 0.185836
vt 0.902784 0.185866
vt 0.925271 0.241608
vt 0.937833 0.241608
vt 0.028714 0.209338
vt 0.012350 0.232944
vt 0.012350 0.184843
vt 0.028714 0.184843
vt 0.167813 0.035957
vt 0.177591 0.012351
vt 0.225690 0.060452
vt 0.202085 0.070230
vt 0.167813 0.209338
vt 0.177590 0.232944
vt 0.028714 0.035957
vt 0.012351 0.012351
vt 0.028714 0.060452
vt 0.012351 0.060452
vt 0.202085 0.175065
vt 0.225690 0.184843
vt 0.642407 0.886135
vt 0.642407 0.926615
vt 0.488406 0.058182
vt 0.534230 0.012350
vt 0.973635 0.740665
vt 0.973635 0.897448
vt 0.973233 0.651528
vt 0.973233 0.494745
vt 0.642407 0.727135
vt 0.642407 0.767616
vt 0.534230 0.222531
vt 0.488406 0.176700
vt 0.155340 0.884435
vt 0.155340 0.770349
vt 0.180041 0.751036
vt 0.180041 0.722301
vt 0.185383 0.727652
vt 0.510850 0.067480
vt 0.543526 0.034798
vt 0.935921 0.663206
vt 0.935590 0.523035
vt 0.936323 0.737822
vt 0.935992 0.877993
vt 0.180041 0.898289
vt 0.180041 0.869555
vt 0.543526 0.200084
vt 0.510850 0.167402
vt 0.434602 0.838821
vt 0.434602 0.943176
vt 0.192594 0.727652
vt 0.858800 0.986421
vt 0.857908 0.986421
vt 0.857908 0.918862
vt 0.858800 0.918862
vt 0.317139 0.821688
vt 0.325107 0.821688
vt 0.325107 0.855435
vt 0.317139 0.845978
vt 0.249575 0.820745
vt 0.241608 0.820745
vt 0.241608 0.746556
vt 0.249575 0.756014
vt 0.325107 0.746556
vt 0.317139 0.756014
vt 0.241608 0.855435
vt 0.249575 0.845978
vt 0.241608 0.821688
vt 0.249575 0.821688
vt 0.440805 0.813037
vt 0.439913 0.813037
vt 0.439913 0.748305
vt 0.440805 0.748305
vt 0.211161 0.690564
vt 0.211161 0.691506
vt 0.210665 0.691506
vt 0.210665 0.690564
vt 0.548586 0.984822
vt 0.547695 0.984822
vt 0.547695 0.920090
vt 0.548586 0.920090
vt 0.926163 0.464074
vt 0.925271 0.464074
vt 0.925271 0.439784
vt 0.926163 0.439784
vt 0.977308 0.120545
vt 0.978200 0.120545
vt 0.978200 0.188104
vt 0.977308 0.188104
vt 0.210665 0.641573
vt 0.211557 0.641573
vt 0.211557 0.665863
vt 0.210665 0.665863
vt 0.470865 0.920090
vt 0.471264 0.920425
vt 0.471264 0.987314
vt 0.470865 0.987649
vt 0.317139 0.820745
vt 0.325107 0.820745
vt 0.316665 0.821688
vt 0.316665 0.820745
vt 0.497350 0.920090
vt 0.496952 0.920425
vt 0.496458 0.920564
vt 0.496458 0.920090
vt 0.522993 0.986983
vt 0.522051 0.986983
vt 0.522051 0.920090
vt 0.522993 0.920090
vt 0.718299 0.224376
vt 0.718299 0.225318
vt 0.717804 0.225318
vt 0.717804 0.224376
vt 0.497350 0.987649
vt 0.496952 0.987314
vt 0.250050 0.820745
vt 0.250050 0.821688
vt 0.471757 0.920090
vt 0.471757 0.920564
vt 0.471757 0.987175
vt 0.471757 0.987649
vt 0.496458 0.987649
vt 0.496458 0.987175
vt 0.213220 0.582182
vt 0.210665 0.582182
vt 0.210665 0.507992
vt 0.213220 0.507992
vt 0.977308 0.012351
vt 0.979863 0.012351
vt 0.979863 0.095844
vt 0.977308 0.095844
vt 0.213220 0.616872
vt 0.210665 0.616872
vt 0.210665 0.583124
vt 0.213220 0.583124
vt 0.439913 0.581662
vt 0.442468 0.581662
vt 0.442468 0.615410
vt 0.439913 0.615410
vt 0.439913 0.506530
vt 0.442468 0.506530
vt 0.442468 0.580720
vt 0.439913 0.580720
vt 0.442468 0.723604
vt 0.439913 0.723604
vt 0.439913 0.640111
vt 0.442468 0.640111
vt 0.700087 0.888536
vt 0.700087 0.706837
vt 0.860039 0.706837
vt 0.860039 0.894161
vt 0.860039 0.894161
vt 0.012351 0.295884
vt 0.056160 0.257645
vt 0.072482 0.257645
vt 0.056955 0.345130
vt 0.012351 0.295884
vt 0.703705 0.317777
vt 0.703705 0.301455
vt 0.829015 0.301455
vt 0.829015 0.317777
vt 0.172302 0.345130
vt 0.172302 0.483291
vt 0.056955 0.483291
vt 0.301739 0.257645
vt 0.301739 0.481829
vt 0.241608 0.481829
vt 0.241608 0.301195
vt 0.285418 0.257645
vt 0.012351 0.483221
vt 0.216907 0.295884
vt 0.216907 0.483221
vt 0.118015 0.900525
vt 0.012350 0.900525
vt 0.012350 0.722301
vt 0.118015 0.722301
vt 0.484313 0.630575
vt 0.484313 0.681608
vt 0.470865 0.697084
vt 0.470865 0.636952
vt 0.657887 0.541974
vt 0.623923 0.508003
vt 0.630789 0.492527
vt 0.675386 0.537132
vt 0.623923 0.681608
vt 0.657887 0.647638
vt 0.675386 0.652479
vt 0.630789 0.697084
vt 0.484313 0.508003
vt 0.470865 0.492527
vt 0.513964 0.772529
vt 0.470865 0.772817
vt 0.470865 0.721785
vt 0.582324 0.721785
vt 0.734067 0.492679
vt 0.873701 0.492527
vt 0.873701 0.682136
vt 0.762399 0.672189
vt 0.046330 0.697449
vt 0.012350 0.697006
vt 0.039320 0.520691
vt 0.074662 0.517939
vt 0.185964 0.697600
vt 0.185964 0.507992
vt 0.700087 0.493121
vt 0.727057 0.669437
vt 0.292641 0.721855
vt 0.241608 0.721855
vt 0.241608 0.532233
vt 0.292641 0.532233
vt 0.760760 0.918862
vt 0.760760 0.958493
vt 0.749167 0.958493
vt 0.749166 0.918862
vt 0.253133 0.890193
vt 0.253133 0.942196
vt 0.241608 0.942196
vt 0.241608 0.890193
vt 0.760672 0.965897
vt 0.749078 0.965897
vt 0.815175 0.926265
vt 0.815175 0.965897
vt 0.803581 0.965897
vt 0.803582 0.926265
vt 0.815087 0.918862
vt 0.803493 0.918862
vt 0.396832 0.838821
vt 0.396832 0.905627
vt 0.357208 0.905627
vt 0.349808 0.898225
vt 0.349808 0.846222
vt 0.357208 0.838821
vt 0.513964 0.844645
vt 0.522793 0.835674
vt 0.617706 0.861419
vt 0.582324 0.895389
vt 0.522793 0.781500
vt 0.617706 0.755755
vt 0.470865 0.844356
vt 0.470865 0.895389
vt 0.295007 0.518125
vt 0.299219 0.523968
vt 0.361813 0.518125
vt 0.364179 0.532233
vt 0.357601 0.523968
vt 0.252329 0.882792
vt 0.270616 0.880136
vt 0.272368 0.889108
vt 0.252329 0.949598
vt 0.272368 0.943282
vt 0.270616 0.952253
vt 0.833207 0.922657
vt 0.829311 0.965691
vt 0.774896 0.919068
vt 0.778792 0.962102
vt 0.295007 0.506530
vt 0.361813 0.506530
vt 0.415212 0.721855
vt 0.364179 0.721855
vt 0.415212 0.532233
vt 0.484313 0.559036
vt 0.470865 0.552659
vt 0.877755 0.012350
vt 0.877755 0.012350
vt 0.877755 0.199675
vt 0.717804 0.199674
vt 0.717804 0.017975
vt 0.703705 0.402070
vt 0.829015 0.402070
vt 0.703705 0.418392
vt 0.829015 0.418392
vt 0.386033 0.257645
vt 0.386033 0.481829
vt 0.156775 0.257645
vt 0.173097 0.257645
vt 0.216907 0.295884
vt 0.414540 0.814120
vt 0.349808 0.814120
vt 0.349808 0.746556
vt 0.414540 0.746556
vt 0.700088 0.918862
vt 0.724377 0.918862
vt 0.724377 0.986426
vt 0.700088 0.986426
vt 0.863233 0.462202
vt 0.703229 0.462202
vt 0.703229 0.257645
vt 0.863233 0.257645
vt 0.402354 0.257645
vt 0.446164 0.301195
vt 0.446164 0.481829
vn -0.6297 0.0000 -0.7769
vn 0.0000 1.0000 0.0000
vn 0.6297 0.0000 0.7769
vn 1.0000 0.0000 0.0000
vn -1.0000 0.0000 0.0000
vn 0.6297 0.0000 -0.7769
vn 0.0000 0.0000 -1.0000
vn 0.0000 0.0000 1.0000
vn -0.6297 0.0000 0.7769
vn 0.0000 -1.0000 0.0000
vn -0.6847 0.7288 0.0000
vn 0.3080 0.8722 -0.3800
vn 0.0000 0.8513 0.5246
vn 0.0000 0.8513 -0.5246
vn 0.3080 0.8722 0.3800
vn 0.4468 0.8946 0.0000
vn -0.3080 0.8722 0.3800
vn -0.3080 0.8722 -0.3800
vn -0.4468 0.8946 0.0000
vn -0.1392 0.9903 0.0000
vn -0.0002 0.0000 -1.0000
vn -0.1392 -0.9903 0.0000
vn -0.0003 0.0000 1.0000
vn 0.4824 -0.8760 -0.0000
vn -0.9568 0.2909 0.0000
vn -0.0451 0.9990 0.0000
vn -0.6135 0.1895 -0.7666
vn -0.6135 0.1895 0.7666
vn 1.0000 0.0022 -0.0000
vn 0.9995 -0.0238 -0.0203
vn 0.9995 -0.0238 0.0203
vn -0.5881 0.3929 -0.7069
vn -0.5881 0.3929 0.7069
vn -0.0031 0.2467 0.9691
vn -0.0031 0.2467 -0.9691
vn -0.8817 0.4718 0.0000
vn 0.9988 -0.0500 0.0000
vn -0.0085 -0.8645 0.5026
vn -0.0085 -0.8645 -0.5026
usemtl toilet1handle
s off
f 129/1/1 60/2/1 65/3/1 123/4/1
f 128/5/2 143/6/2 132/7/2 115/8/2
f 130/9/2 145/10/2 136/11/2 119/12/2
f 74/13/3 146/14/3 140/15/3 71/16/3
f 69/17/4 135/18/4 146/14/4 74/13/4
f 73/19/5 144/20/5 142/21/5 72/22/5
f 70/23/6 138/24/6 135/18/6 69/17/6
f 67/25/5 131/26/5 144/20/5 73/19/5
f 72/27/7 142/28/7 138/29/7 70/30/7
f 71/31/8 140/32/8 134/33/8 68/34/8
f 116/35/4 59/36/4 61/37/4 127/38/4
f 120/39/5 62/40/5 60/41/5 129/42/5
f 121/43/9 64/44/9 62/45/9 120/46/9
f 125/47/8 66/48/8 64/44/8 121/43/8
f 68/49/5 134/50/5 131/26/5 67/25/5
f 123/4/7 65/3/7 63/51/7 117/52/7
f 127/38/4 61/37/4 66/53/4 125/54/4
f 122/55/2 137/56/2 141/57/2 126/58/2
f 119/12/2 136/11/2 137/56/2 122/55/2
f 124/59/2 139/60/2 145/10/2 130/9/2
f 126/58/2 141/57/2 143/6/2 128/5/2
f 118/61/2 133/62/2 139/60/2 124/59/2
f 115/8/2 132/7/2 133/62/2 118/61/2
f 52/63/10 68/64/10 67/65/10 56/66/10
f 54/67/10 70/68/10 69/69/10 58/70/10
f 53/71/10 71/72/10 68/64/10 52/63/10
f 51/73/10 72/74/10 70/68/10 54/67/10
f 55/75/10 73/76/10 72/74/10 51/73/10
f 56/66/10 67/65/10 73/76/10 55/75/10
f 57/77/10 74/78/10 71/72/10 53/71/10
f 58/70/10 69/69/10 74/78/10 57/77/10
f 88/79/8 106/80/8 104/81/8 86/82/8
f 83/83/4 99/84/4 101/85/4 89/86/4
f 85/87/5 102/88/5 100/89/5 90/90/5
f 112/91/7 96/92/7 94/93/7 110/94/7
f 110/95/6 94/96/6 93/97/6 109/98/6
f 114/99/3 98/100/3 95/101/3 111/102/3
f 113/103/5 97/104/5 96/105/5 112/106/5
f 111/107/8 95/108/8 92/109/8 108/110/8
f 108/111/5 92/112/5 91/113/5 107/114/5
f 109/98/4 93/97/4 98/100/4 114/99/4
f 107/114/5 91/113/5 97/104/5 113/103/5
f 83/115/2 91/116/2 92/117/2 84/118/2
f 85/119/2 93/120/2 94/121/2 86/122/2
f 84/118/2 92/117/2 95/123/2 87/124/2
f 86/122/2 94/121/2 96/125/2 88/126/2
f 88/126/2 96/125/2 97/127/2 89/128/2
f 89/128/2 97/127/2 91/116/2 83/115/2
f 87/124/2 95/123/2 98/129/2 90/130/2
f 90/130/2 98/129/2 93/120/2 85/119/2
f 86/82/9 104/81/9 102/131/9 85/132/9
f 90/133/1 100/134/1 105/135/1 87/136/1
f 89/86/4 101/85/4 106/137/4 88/138/4
f 87/136/7 105/135/7 103/139/7 84/140/7
f 84/141/4 103/142/4 99/84/4 83/83/4
f 76/143/10 108/144/10 107/145/10 80/146/10
f 78/147/10 110/148/10 109/149/10 82/150/10
f 77/151/10 111/152/10 108/144/10 76/143/10
f 75/153/10 112/154/10 110/148/10 78/147/10
f 79/155/10 113/156/10 112/154/10 75/153/10
f 80/146/10 107/145/10 113/156/10 79/155/10
f 81/157/10 114/158/10 111/152/10 77/151/10
f 82/150/10 109/149/10 114/158/10 81/157/10
f 132/159/11 131/26/11 134/50/11 133/160/11
f 136/11/12 135/161/12 138/162/12 137/56/12
f 133/163/13 134/33/13 140/32/13 139/164/13
f 142/28/14 141/165/14 137/166/14 138/29/14
f 141/167/11 142/21/11 144/20/11 143/168/11
f 143/168/11 144/20/11 131/26/11 132/159/11
f 139/60/15 140/169/15 146/170/15 145/10/15
f 145/171/16 146/14/16 135/18/16 136/172/16
f 116/35/16 115/173/16 118/174/16 117/175/16
f 120/176/17 119/12/17 122/55/17 121/177/17
f 117/52/14 118/178/14 124/179/14 123/4/14
f 126/180/13 125/47/13 121/43/13 122/181/13
f 125/54/16 126/182/16 128/183/16 127/38/16
f 127/38/16 128/183/16 115/173/16 116/35/16
f 123/184/18 124/59/18 130/9/18 129/185/18
f 129/42/19 130/186/19 119/187/19 120/39/19
f 117/175/4 63/188/4 59/36/4 116/35/4
f 90/130/2 83/115/2 84/118/2 87/124/2
f 89/128/2 85/119/2 86/122/2 88/126/2
f 85/119/2 89/128/2 83/115/2 90/130/2
f 156/189/7 162/190/7 164/191/7 158/192/7
f 170/193/4 166/194/4 147/195/4 158/196/4
f 171/197/4 168/198/4 149/199/4 157/200/4
f 157/200/4 149/199/4 148/201/4 154/202/4
f 158/196/4 147/195/4 150/203/4 156/204/4
f 156/204/4 150/203/4 167/205/4 172/206/4
f 169/207/10 174/208/10 160/209/10 154/210/10
f 159/211/20 161/212/20 153/213/20 155/214/20
f 157/215/2 163/216/2 176/217/2 171/218/2
f 172/219/2 175/220/2 162/221/2 156/222/2
f 154/223/8 160/224/8 163/225/8 157/226/8
f 158/227/10 164/228/10 173/229/10 170/230/10
f 174/231/21 178/232/21 153/233/21 176/234/21
f 170/193/4 169/235/4 165/236/4 166/194/4
f 171/197/4 172/206/4 167/205/4 168/198/4
f 170/193/4 151/237/4 152/238/4 169/235/4
f 173/239/8 177/240/8 151/241/8 170/242/8
f 154/202/4 148/201/4 165/236/4 169/235/4
f 155/243/4 153/244/4 178/245/4 177/246/4
f 152/247/22 151/248/22 177/249/22 178/250/22
f 175/251/23 155/252/23 177/240/23 173/239/23
f 171/197/4 161/253/4 159/254/4 172/206/4
f 169/255/7 152/256/7 178/232/7 174/231/7
f 176/234/7 153/233/7 161/257/7 171/258/7
f 172/259/8 159/260/8 155/252/8 175/251/8
f 168/261/2 186/262/2 181/263/2 149/264/2
f 147/265/7 179/266/7 182/267/7 150/268/7
f 150/269/2 182/270/2 185/271/2 167/272/2
f 166/273/10 184/274/10 179/275/10 147/276/10
f 148/277/10 180/278/10 183/279/10 165/280/10
f 165/280/10 183/279/10 184/274/10 166/273/10
f 149/281/8 181/282/8 180/283/8 148/284/8
f 167/272/2 185/271/2 186/262/2 168/261/2
usemtl toilet1
f 189/285/7 12/286/7 15/287/7 9/288/7 194/289/7
f 191/290/24 192/291/24 47/292/24 7/293/24 8/294/24
f 43/295/10 190/296/10 193/297/10 48/298/10
f 10/299/4 16/300/4 13/301/4 7/293/4
f 43/302/5 46/303/5 12/304/5 189/305/5 190/306/5
f 7/293/3 13/301/3 14/307/3 8/294/3
f 9/308/6 15/309/6 16/300/6 10/299/6
f 4/310/25 5/311/25 22/312/25 19/313/25
f 50/314/2 2/315/2 12/316/2 46/317/2
f 4/318/2 3/319/2 14/320/2 13/321/2
f 6/322/2 5/323/2 16/324/2 15/325/2
f 2/315/2 6/322/2 15/325/2 12/316/2
f 3/319/2 1/326/2 11/327/2 14/320/2
f 5/323/2 4/318/2 13/321/2 16/324/2
f 38/328/26 29/329/26 17/330/26 20/331/26
f 6/332/8 2/333/8 18/334/8 21/335/8
f 3/336/27 4/337/27 19/338/27 20/339/27
f 1/340/7 3/336/7 20/339/7 17/341/7
f 5/342/28 6/332/28 21/335/28 22/343/28
f 49/344/29 1/345/29 17/346/29 29/347/29
f 30/348/7 37/349/7 26/350/7 23/351/7
f 36/352/5 41/353/5 28/354/5 25/355/5
f 37/349/1 36/356/1 25/357/1 26/350/1
f 40/358/8 32/359/8 24/360/8 27/361/8
f 41/362/9 40/358/9 27/361/9 28/363/9
f 24/364/2 23/365/2 26/366/2 25/367/2 28/368/2 27/369/2
f 39/370/26 42/371/26 22/372/26 21/373/26
f 42/371/26 35/374/26 19/375/26 22/372/26
f 33/376/26 39/370/26 21/373/26 18/377/26
f 35/374/26 38/328/26 20/331/26 19/375/26
f 29/347/30 30/378/30 31/379/30
f 32/380/31 33/381/31 34/382/31
f 36/352/32 37/383/32 38/384/32 35/385/32
f 40/386/33 41/353/33 42/387/33 39/388/33
f 39/389/34 33/390/34 32/359/34 40/358/34
f 29/391/35 38/392/35 37/349/35 30/348/35
f 35/385/36 42/387/36 41/353/36 36/352/36
f 32/380/4 34/382/4 31/379/4 30/378/4 23/393/4 24/394/4
f 2/395/29 50/396/29 33/381/29 18/397/29
f 50/396/29 49/344/29 29/347/29 33/381/29
f 1/326/2 49/398/2 45/399/2 11/327/2
f 49/398/2 50/314/2 46/317/2 45/399/2
f 191/400/8 8/401/8 14/402/8 11/403/8 188/404/8
f 44/405/10 43/295/10 48/298/10 47/406/10
f 187/407/10 44/405/10 47/406/10 192/408/10
f 44/409/5 45/410/5 46/303/5 43/302/5
f 29/347/37 31/379/37 34/382/37 33/381/37
f 48/411/24 193/412/24 194/413/24 9/308/24 10/299/24
f 47/292/24 48/411/24 10/299/24 7/293/24
f 160/414/4 174/415/4 176/416/4 163/417/4
f 173/418/4 164/419/4 162/420/4 175/421/4
f 191/422/38 188/423/38 187/407/38 192/408/38
f 189/424/39 194/425/39 193/297/39 190/296/39
f 187/426/5 188/427/5 11/428/5 45/410/5 44/409/5
