# Blender v3.0.0 OBJ File: 'furniturePack.blend'
# www.blender.org
mtllib KitchenCabinet1WithSink.mtl
o upper_cabinet.001_Cylinder.001
v -10.911399 1.707911 18.278776
v -10.911399 2.797082 18.278776
v -10.911399 1.707911 17.388163
v -10.911399 2.797082 17.388163
v -10.323177 1.728438 18.258249
v -10.323177 2.776554 18.258249
v -10.323177 1.728438 17.408689
v -10.323177 2.776554 17.408689
v -10.323177 2.797082 17.388163
v -10.323177 1.707911 17.388163
v -10.323177 1.707911 18.278776
v -10.323177 2.797082 18.278776
v -10.881702 2.776554 17.408689
v -10.881702 1.728438 17.408689
v -10.881702 1.728438 18.258249
v -10.881702 2.776554 18.258249
v -10.911399 2.089438 18.278776
v -10.911399 2.066182 18.278776
v -10.911399 2.438591 18.278776
v -10.911399 2.415774 18.278776
v -10.911399 2.415774 17.388163
v -10.911399 2.438591 17.388163
v -10.911399 2.066182 17.388163
v -10.911399 2.089438 17.388163
v -10.323177 2.415759 17.388163
v -10.323177 2.438605 17.388163
v -10.323177 2.066168 17.388163
v -10.323177 2.089453 17.388163
v -10.323177 2.438605 18.278776
v -10.323177 2.415759 18.278776
v -10.323177 2.089453 18.278776
v -10.323177 2.066168 18.278776
v -10.323177 2.415759 17.408689
v -10.323177 2.438605 17.408689
v -10.323177 2.066168 17.408689
v -10.323177 2.089453 17.408689
v -10.323177 2.438605 18.258249
v -10.323177 2.415759 18.258249
v -10.323177 2.089453 18.258249
v -10.323177 2.066168 18.258249
v -10.881702 2.438594 17.408689
v -10.881702 2.415770 17.408689
v -10.881702 2.089442 17.408689
v -10.881702 2.066179 17.408689
v -10.881702 2.415770 18.258249
v -10.881702 2.438594 18.258249
v -10.881702 2.066179 18.258249
v -10.881702 2.089442 18.258249
v -10.323177 1.716151 18.266621
v -10.323177 1.716151 17.400316
v -10.323177 2.788842 18.266621
v -10.323177 2.788842 17.400316
v -10.323177 1.716151 17.833281
v -10.323177 1.716151 17.833656
v -10.323177 2.788842 17.833656
v -10.323177 2.788842 17.833281
v -10.300921 1.725082 17.409004
v -10.309853 1.716151 17.400316
v -10.300921 1.725082 18.257935
v -10.309853 1.716151 18.266621
v -10.300921 2.779911 17.409004
v -10.309853 2.788842 17.400316
v -10.300921 2.779911 18.257935
v -10.309853 2.788842 18.266621
v -10.300921 1.725082 17.845423
v -10.309853 1.716151 17.833656
v -10.300921 1.725082 17.821516
v -10.309853 1.716151 17.833281
v -10.300921 2.779911 17.821516
v -10.309853 2.788842 17.833281
v -10.300921 2.779911 17.845423
v -10.309853 2.788842 17.833656
v -10.300921 1.772480 17.752542
v -10.300921 1.908300 17.752542
v -10.300921 1.772480 17.767715
v -10.300921 1.908300 17.767715
v -10.275687 1.863178 17.752542
v -10.275687 1.818404 17.752542
v -10.275687 1.863178 17.768608
v -10.275687 1.818404 17.768608
v -10.293044 1.772923 17.768608
v -10.282978 1.785322 17.768608
v -10.282978 1.896260 17.768608
v -10.293044 1.908659 17.768608
v -10.282978 1.785322 17.752542
v -10.293044 1.772923 17.752542
v -10.293044 1.908659 17.752542
v -10.282978 1.896260 17.752542
v -10.271426 1.863791 17.752542
v -10.271426 1.817792 17.752542
v -10.271426 1.863791 17.768608
v -10.271426 1.817792 17.768608
v -10.279335 1.783062 17.768608
v -10.291193 1.768953 17.768608
v -10.291193 1.768953 17.752542
v -10.279335 1.783062 17.752542
v -10.279335 1.898520 17.752542
v -10.291193 1.912629 17.752542
v -10.291193 1.912629 17.768608
v -10.279335 1.898520 17.768608
v -10.300921 1.768311 17.767715
v -10.300921 1.768311 17.752542
v -10.300921 1.912567 17.752542
v -10.300921 1.912567 17.767715
v -10.300921 1.772480 17.908524
v -10.300921 1.908300 17.908524
v -10.300921 1.772480 17.894243
v -10.300921 1.908300 17.894243
v -10.275687 1.863178 17.909416
v -10.275687 1.818404 17.909416
v -10.275687 1.863178 17.893351
v -10.275687 1.818404 17.893351
v -10.293044 1.772923 17.893351
v -10.282978 1.785322 17.893351
v -10.282978 1.896260 17.893351
v -10.293044 1.908659 17.893351
v -10.282978 1.785322 17.909416
v -10.293044 1.772923 17.909416
v -10.293044 1.908659 17.909416
v -10.282978 1.896260 17.909416
v -10.271426 1.863791 17.909416
v -10.271426 1.817792 17.909416
v -10.271426 1.863791 17.893351
v -10.271426 1.817792 17.893351
v -10.279335 1.783062 17.893351
v -10.291193 1.768953 17.893351
v -10.291193 1.768953 17.909416
v -10.279335 1.783062 17.909416
v -10.279335 1.898520 17.909416
v -10.291193 1.912629 17.909416
v -10.291193 1.912629 17.893351
v -10.279335 1.898520 17.893351
v -10.300921 1.767537 17.894243
v -10.300921 1.767537 17.908524
v -10.300921 1.912567 17.908524
v -10.300921 1.912567 17.894243
v -10.323177 1.906899 17.400316
v -10.323177 1.906899 17.833281
v -10.300921 1.912567 17.409004
v -10.309853 1.906899 17.400316
v -10.309853 1.906899 17.833281
v -10.300921 1.912567 17.821516
v -10.323177 1.760238 17.400316
v -10.300921 1.768311 17.409004
v -10.309853 1.760238 17.833281
v -10.323177 1.760238 17.833281
v -10.309853 1.760238 17.400316
v -10.300921 1.768311 17.821516
v -10.323177 1.906992 18.266621
v -10.323177 1.906992 17.833656
v -10.300921 1.912567 18.257935
v -10.309853 1.906992 18.266621
v -10.309853 1.906992 17.833656
v -10.300921 1.912567 17.845423
v -10.323177 1.759560 17.833656
v -10.309853 1.759560 18.266621
v -10.300921 1.767537 17.845423
v -10.323177 1.759560 18.266621
v -10.300921 1.767537 18.257935
v -10.309853 1.759560 17.833656
vt 0.012731 0.374952
vt 0.012731 0.291559
vt 0.149562 0.291559
vt 0.149562 0.374949
vt 0.012731 0.456173
vt 0.012731 0.380260
vt 0.149562 0.380264
vt 0.149562 0.456170
vt 0.181929 0.768014
vt 0.181929 0.570387
vt 0.311845 0.570387
vt 0.311845 0.768014
vt 0.219908 0.182704
vt 0.219908 0.266097
vt 0.012731 0.266097
vt 0.012731 0.182704
vt 0.614781 0.219908
vt 0.478009 0.219908
vt 0.478009 0.012731
vt 0.614781 0.012731
vt 0.337307 0.291559
vt 0.474130 0.291559
vt 0.474130 0.498737
vt 0.337307 0.498737
vt 0.250145 0.182707
vt 0.250145 0.261322
vt 0.245370 0.266097
vt 0.245370 0.182707
vt 0.447772 0.017506
vt 0.250145 0.017506
vt 0.245370 0.012731
vt 0.452548 0.012731
vt 0.447772 0.261322
vt 0.452548 0.266097
vt 0.250145 0.101486
vt 0.250145 0.177393
vt 0.245370 0.177393
vt 0.245370 0.101486
vt 0.499592 0.789642
vt 0.575503 0.789642
vt 0.575503 0.987269
vt 0.499592 0.987269
vt 0.784836 0.566553
vt 0.784836 0.764181
vt 0.654969 0.764181
vt 0.654969 0.566553
vt 0.337310 0.799193
vt 0.413216 0.799193
vt 0.413218 0.929107
vt 0.337307 0.929107
vt 0.810298 0.566553
vt 0.888915 0.566553
vt 0.888915 0.764180
vt 0.810298 0.764180
vt 0.181932 0.793476
vt 0.257838 0.793476
vt 0.257841 0.923399
vt 0.181929 0.923399
vt 0.602193 0.789642
vt 0.680757 0.789642
vt 0.680757 0.919565
vt 0.602191 0.919565
vt 0.888915 0.919565
vt 0.810300 0.919565
vt 0.810298 0.789642
vt 0.888915 0.789642
vt 0.012731 0.793476
vt 0.091295 0.793476
vt 0.091297 0.923390
vt 0.012731 0.923390
vt 0.881817 0.291559
vt 0.881817 0.489186
vt 0.751950 0.489186
vt 0.751950 0.291559
vt 0.907279 0.291559
vt 0.985845 0.291559
vt 0.985845 0.489186
vt 0.907279 0.489186
vt 0.706221 0.789642
vt 0.784836 0.789642
vt 0.784836 0.919556
vt 0.706219 0.919557
vt 0.250145 0.096070
vt 0.245370 0.096070
vt 0.447772 0.177393
vt 0.447772 0.101486
vt 0.452548 0.101486
vt 0.452548 0.177393
vt 0.447772 0.096070
vt 0.452548 0.096070
vt 0.219908 0.101483
vt 0.219908 0.177396
vt 0.012731 0.177396
vt 0.012731 0.101483
vt 0.311845 0.461536
vt 0.311845 0.544926
vt 0.175023 0.544925
vt 0.175023 0.461532
vt 0.447772 0.182707
vt 0.452548 0.182707
vt 0.012731 0.544926
vt 0.012731 0.461583
vt 0.149562 0.461587
vt 0.149562 0.544925
vt 0.311845 0.291559
vt 0.311845 0.374898
vt 0.175023 0.374901
vt 0.175023 0.291559
vt 0.311845 0.380315
vt 0.311845 0.456221
vt 0.175023 0.456224
vt 0.175023 0.380311
vt 0.443994 0.929107
vt 0.438680 0.929107
vt 0.438683 0.799193
vt 0.443992 0.799193
vt 0.147637 0.793476
vt 0.153054 0.793476
vt 0.153051 0.923390
vt 0.147639 0.923390
vt 0.116759 0.793476
vt 0.122175 0.793476
vt 0.122173 0.923399
vt 0.116761 0.923399
vt 0.288617 0.923399
vt 0.283303 0.923399
vt 0.283305 0.793476
vt 0.288615 0.793476
vt 0.955723 0.210358
vt 0.950312 0.210358
vt 0.950312 0.012731
vt 0.955723 0.012731
vt 0.978858 0.764180
vt 0.973549 0.764180
vt 0.973549 0.566553
vt 0.978858 0.566553
vt 0.012731 0.096073
vt 0.219908 0.096073
vt 0.219908 0.012731
vt 0.012731 0.012731
vt 0.499592 0.764180
vt 0.499592 0.566553
vt 0.629508 0.566553
vt 0.629508 0.764180
vt 0.896289 0.012731
vt 0.896289 0.210358
vt 0.766422 0.210358
vt 0.766422 0.012731
vt 0.012731 0.768014
vt 0.012731 0.570387
vt 0.142647 0.570387
vt 0.142647 0.768014
vt 0.919526 0.771692
vt 0.916427 0.771692
vt 0.916427 0.566553
vt 0.919526 0.566553
vt 0.945076 0.841548
vt 0.948174 0.841548
vt 0.948174 0.942266
vt 0.945076 0.942266
vt 0.978874 0.942266
vt 0.975775 0.942266
vt 0.975775 0.841548
vt 0.978874 0.841548
vt 0.914377 0.841548
vt 0.917475 0.841548
vt 0.917475 0.942266
vt 0.914377 0.942266
vt 0.740960 0.057103
vt 0.740960 0.262264
vt 0.640243 0.262264
vt 0.640243 0.057103
vt 0.924850 0.057125
vt 0.924850 0.262264
vt 0.921750 0.262264
vt 0.921750 0.057125
vt 0.472555 0.899910
vt 0.469456 0.899910
vt 0.469456 0.799193
vt 0.472555 0.799193
vt 0.468650 0.534454
vt 0.465550 0.534454
vt 0.465550 0.524198
vt 0.468650 0.524198
vt 0.501613 0.337250
vt 0.582894 0.337250
vt 0.586216 0.337250
vt 0.597572 0.337250
vt 0.597572 0.539014
vt 0.501613 0.539014
vt 0.948087 0.610926
vt 0.948087 0.816086
vt 0.944988 0.816086
vt 0.944988 0.610926
vt 0.726489 0.335953
vt 0.726489 0.541092
vt 0.625771 0.541092
vt 0.625771 0.335953
vt 0.914377 0.770395
vt 0.914377 0.568631
vt 0.463486 0.536332
vt 0.463486 0.526276
vt 0.337307 0.534454
vt 0.337307 0.524198
vt 0.340044 0.526276
vt 0.340044 0.536332
vt 0.600309 0.335953
vt 0.600309 0.541092
vt 0.919614 0.844285
vt 0.919614 0.940245
vt 0.950313 0.843569
vt 0.950313 0.939529
vt 0.499592 0.541092
vt 0.438024 0.773731
vt 0.337307 0.773731
vt 0.340044 0.771653
vt 0.436004 0.771653
vt 0.340044 0.569889
vt 0.352559 0.569889
vt 0.356089 0.569889
vt 0.436004 0.569889
vt 0.810298 0.976602
vt 0.810298 0.973718
vt 0.814035 0.973718
vt 0.814035 0.976602
vt 0.563459 0.249107
vt 0.561196 0.249107
vt 0.561196 0.245578
vt 0.563459 0.245370
vt 0.810298 0.966022
vt 0.814035 0.966022
vt 0.638251 0.967088
vt 0.638251 0.975167
vt 0.634514 0.975167
vt 0.634514 0.967088
vt 0.508009 0.249107
vt 0.505743 0.249107
vt 0.505743 0.245370
vt 0.508009 0.245578
vt 0.810298 0.955607
vt 0.814035 0.955607
vt 0.810298 0.947911
vt 0.814035 0.947911
vt 0.638251 0.956388
vt 0.634514 0.956388
vt 0.810298 0.945027
vt 0.814035 0.945027
vt 0.781080 0.518385
vt 0.779246 0.518385
vt 0.779246 0.514855
vt 0.781080 0.514648
vt 0.634514 0.945027
vt 0.638251 0.945027
vt 0.638251 0.948309
vt 0.634514 0.948309
vt 0.638251 0.978449
vt 0.634514 0.978449
vt 0.608061 0.966946
vt 0.608061 0.956530
vt 0.609052 0.956388
vt 0.609052 0.967088
vt 0.771859 0.956522
vt 0.771859 0.966937
vt 0.770868 0.967080
vt 0.770868 0.956379
vt 0.773555 0.974633
vt 0.775896 0.977517
vt 0.775466 0.978441
vt 0.772708 0.975159
vt 0.604023 0.977526
vt 0.606365 0.974641
vt 0.607212 0.975167
vt 0.604454 0.978449
vt 0.606365 0.948835
vt 0.604023 0.945950
vt 0.604454 0.945027
vt 0.607212 0.948309
vt 0.775896 0.945942
vt 0.773555 0.948826
vt 0.772708 0.948300
vt 0.775466 0.945018
vt 0.777731 0.977620
vt 0.777731 0.978590
vt 0.602191 0.977629
vt 0.602191 0.978599
vt 0.602191 0.946034
vt 0.602191 0.945041
vt 0.777731 0.946025
vt 0.777731 0.945033
vt 0.753785 0.514855
vt 0.753785 0.518385
vt 0.751950 0.518385
vt 0.751950 0.514648
vt 0.667450 0.976602
vt 0.663713 0.976602
vt 0.663713 0.973718
vt 0.667450 0.973718
vt 0.535734 0.245370
vt 0.535734 0.249107
vt 0.533471 0.248900
vt 0.533471 0.245578
vt 0.663713 0.966022
vt 0.667450 0.966022
vt 0.469456 0.947433
vt 0.473193 0.947433
vt 0.473193 0.955512
vt 0.469456 0.955512
vt 0.478009 0.248900
vt 0.478009 0.245578
vt 0.480281 0.245370
vt 0.480281 0.249107
vt 0.663713 0.955607
vt 0.667450 0.955607
vt 0.663713 0.947911
vt 0.667450 0.947911
vt 0.469456 0.936733
vt 0.473193 0.936733
vt 0.663713 0.945027
vt 0.667450 0.945027
vt 0.768256 0.235820
vt 0.768256 0.239557
vt 0.766422 0.239349
vt 0.766422 0.236027
vt 0.473193 0.925372
vt 0.473193 0.928654
vt 0.469456 0.928654
vt 0.469456 0.925372
vt 0.469456 0.958794
vt 0.473193 0.958794
vt 0.707210 0.966937
vt 0.706219 0.967080
vt 0.706219 0.956379
vt 0.707210 0.956522
vt 0.744415 0.956522
vt 0.745406 0.956379
vt 0.745406 0.967080
vt 0.744415 0.966937
vt 0.742719 0.974633
vt 0.743567 0.975159
vt 0.740808 0.978441
vt 0.740378 0.977517
vt 0.711247 0.977517
vt 0.710817 0.978441
vt 0.708059 0.975159
vt 0.708906 0.974633
vt 0.708906 0.948826
vt 0.708059 0.948300
vt 0.710817 0.945018
vt 0.711247 0.945942
vt 0.740378 0.945942
vt 0.740808 0.945018
vt 0.743567 0.948300
vt 0.742719 0.948826
vt 0.738544 0.978770
vt 0.738544 0.977620
vt 0.713082 0.977620
vt 0.713082 0.978770
vt 0.713082 0.945033
vt 0.713082 0.946025
vt 0.738544 0.946025
vt 0.738544 0.945033
vt 0.588920 0.245578
vt 0.590754 0.245370
vt 0.590754 0.249107
vt 0.588920 0.248900
vt 0.356089 0.536332
vt 0.436004 0.536332
vt 0.356089 0.568897
vt 0.356089 0.537302
vt 0.337307 0.568571
vt 0.463486 0.771654
vt 0.463486 0.569889
vt 0.465550 0.568571
vt 0.465550 0.773731
vt 0.948087 0.576809
vt 0.944988 0.576809
vt 0.468650 0.773731
vt 0.468650 0.568571
vt 0.740960 0.022987
vt 0.640243 0.022987
vt 0.740960 0.012731
vt 0.640243 0.012731
vt 0.948087 0.566553
vt 0.944988 0.566553
vt 0.436004 0.526276
vt 0.352559 0.536332
vt 0.352559 0.537302
vt 0.352559 0.568897
vt 0.600309 0.301657
vt 0.597572 0.303513
vt 0.914377 0.804132
vt 0.916427 0.805988
vt 0.726489 0.301657
vt 0.625771 0.301657
vt 0.586216 0.303513
vt 0.586216 0.336257
vt 0.586216 0.304663
vt 0.924850 0.022829
vt 0.921750 0.022829
vt 0.919526 0.805988
vt 0.919526 0.816086
vt 0.916427 0.816086
vt 0.924850 0.012731
vt 0.921750 0.012731
vt 0.501613 0.293637
vt 0.597572 0.293637
vt 0.582894 0.303513
vt 0.501613 0.303513
vt 0.726489 0.291559
vt 0.625771 0.291559
vt 0.914377 0.814008
vt 0.600309 0.291559
vt 0.582894 0.304663
vt 0.582894 0.336257
vn 0.0000 0.0000 -1.0000
vn 0.0000 1.0000 0.0000
vn -1.0000 0.0000 0.0000
vn 0.0000 -1.0000 0.0000
vn 1.0000 0.0000 0.0000
vn 1.0000 -0.0001 0.0000
vn 1.0000 0.0001 0.0000
vn 0.0000 0.0000 1.0000
vn 0.6972 0.0000 0.7169
vn 0.6972 0.0000 -0.7168
vn 0.7965 0.0000 0.6047
vn 0.7965 0.0000 -0.6046
vn 0.7071 -0.7071 0.0000
vn 0.7071 0.7071 0.0000
vn -0.7764 -0.6303 0.0000
vn -0.0063 1.0000 0.0000
vn -0.9766 -0.2152 0.0000
vn 0.9750 0.2220 0.0000
vn 0.0659 -0.9978 0.0000
vn -0.9766 0.2152 0.0000
vn -0.7764 0.6303 0.0000
vn -0.0561 0.9984 0.0000
vn 0.7655 -0.6434 0.0000
vn 0.7655 0.6434 0.0000
vn 0.9750 -0.2220 0.0000
vn -0.0994 -0.0226 0.9948
vn 0.0002 0.0000 -1.0000
vn -0.1014 0.0228 0.9946
vn 0.0004 0.0000 1.0000
vn 0.0456 -0.9990 0.0000
vn 0.1440 -0.9896 0.0000
vn 0.0002 0.0000 1.0000
vn -0.0001 0.0000 -1.0000
vn 0.0001 0.0000 1.0000
vn 0.0003 0.0000 1.0000
vn -0.0003 0.0000 -1.0000
vn -0.0986 -0.0205 -0.9949
vn -0.0989 -0.0205 0.9949
vn -0.1013 0.0228 0.9946
vn -0.1013 0.0228 -0.9946
vn -0.0002 0.0000 -1.0000
vn 0.6973 0.0000 -0.7168
vn 0.7965 0.0000 0.6046
vn 0.6972 0.0000 0.7168
usemtl UpperCabinetTexture
s off
f 22/1/1 4/2/1 9/3/1 26/4/1
f 24/5/1 21/6/1 25/7/1 28/8/1
f 5/9/2 7/10/2 14/11/2 15/12/2
f 19/13/3 2/14/3 4/15/3 22/16/3
f 3/17/4 10/18/4 11/19/4 1/20/4
f 9/21/2 4/22/2 2/23/2 12/24/2
f 37/25/5 6/26/5 12/27/5 29/28/5
f 7/29/6 5/30/6 11/31/6 10/32/6
f 6/26/7 8/33/7 9/34/7 12/27/7
f 39/35/5 38/36/5 30/37/5 31/38/5
f 43/39/5 42/40/5 45/41/5 48/42/5
f 8/43/4 6/44/4 16/45/4 13/46/4
f 36/47/8 33/48/8 42/49/8 43/50/8
f 41/51/5 13/52/5 16/53/5 46/54/5
f 38/55/1 39/56/1 48/57/1 45/58/1
f 40/59/1 5/60/1 15/61/1 47/62/1
f 6/63/1 37/64/1 46/65/1 16/66/1
f 7/67/8 35/68/8 44/69/8 14/70/8
f 35/71/4 40/72/4 47/73/4 44/74/4
f 14/75/5 44/76/5 47/77/5 15/78/5
f 34/79/8 8/80/8 13/81/8 41/82/8
f 5/30/5 40/83/5 32/84/5 11/31/5
f 33/85/5 36/86/5 28/87/5 25/88/5
f 35/89/5 7/29/5 10/32/5 27/90/5
f 17/91/3 20/92/3 21/93/3 24/94/3
f 29/95/8 12/96/8 2/97/8 19/98/8
f 8/33/5 34/99/5 26/100/5 9/34/5
f 3/101/1 23/102/1 27/103/1 10/104/1
f 11/105/8 32/106/8 18/107/8 1/108/8
f 31/109/8 30/110/8 20/111/8 17/112/8
f 38/113/8 37/114/8 46/115/8 45/116/8
f 40/117/8 39/118/8 48/119/8 47/120/8
f 36/121/1 35/122/1 44/123/1 43/124/1
f 34/125/1 33/126/1 42/127/1 41/128/1
f 43/129/3 44/130/3 47/131/3 48/132/3
f 41/133/3 42/134/3 45/135/3 46/136/3
f 39/35/5 31/38/5 32/84/5 40/83/5
f 37/25/5 29/28/5 30/37/5 38/36/5
f 33/85/5 25/88/5 26/100/5 34/99/5
f 35/89/5 27/90/5 28/87/5 36/86/5
f 31/109/8 17/112/8 18/107/8 32/106/8
f 29/95/8 19/98/8 20/111/8 30/110/8
f 24/5/1 28/8/1 27/103/1 23/102/1
f 22/1/1 26/4/1 25/7/1 21/6/1
f 17/91/3 24/94/3 23/137/3 18/138/3
f 19/13/3 22/16/3 21/93/3 20/92/3
f 1/139/3 18/138/3 23/137/3 3/140/3
f 39/141/2 36/142/2 43/143/2 48/144/2
f 40/83/5 35/89/5 36/86/5 39/35/5
f 33/145/4 38/146/4 45/147/4 42/148/4
f 37/149/2 34/150/2 41/151/2 46/152/2
f 38/36/5 33/85/5 34/99/5 37/25/5
f 149/153/8 152/154/8 64/155/8 51/156/8
f 50/157/4 58/158/4 68/159/4 53/160/4
f 56/161/2 70/162/2 62/163/2 52/164/2
f 54/165/4 66/166/4 60/167/4 49/168/4
f 138/169/3 56/170/3 52/171/3 137/172/3
f 150/173/1 55/174/1 72/175/1 153/176/1
f 51/177/2 64/178/2 72/179/2 55/180/2
f 143/181/1 147/182/1 58/183/1 50/184/1
f 151/185/5 135/186/5 136/187/5 154/188/5 71/189/5 63/190/5
f 141/191/8 70/192/8 56/193/8 138/194/8
f 149/195/3 51/196/3 55/197/3 150/198/3
f 151/199/9 63/200/9 64/155/9 152/154/9
f 144/201/10 57/202/10 58/183/10 147/182/10
f 145/203/11 68/204/11 67/205/11 148/206/11
f 153/207/12 72/208/12 71/189/12 154/188/12
f 60/167/13 66/166/13 65/209/13 59/210/13
f 68/159/13 58/158/13 57/211/13 67/212/13
f 72/208/14 64/213/14 63/190/14 71/189/14
f 62/214/14 70/215/14 69/216/14 61/217/14
f 142/218/5 104/219/5 103/220/5 139/221/5 61/217/5 69/216/5
f 87/222/15 88/223/15 83/224/15 84/225/15
f 98/226/16 103/227/16 104/228/16 99/229/16
f 83/224/17 88/223/17 77/230/17 79/231/17
f 89/232/18 97/233/18 100/234/18 91/235/18
f 102/236/19 95/237/19 94/238/19 101/239/19
f 79/231/3 77/230/3 78/240/3 80/241/3
f 78/240/20 85/242/20 82/243/20 80/241/20
f 90/244/5 89/232/5 91/235/5 92/245/5
f 85/242/21 86/246/21 81/247/21 82/243/21
f 86/248/22 73/249/22 75/250/22 81/251/22
f 94/252/23 95/253/23 96/254/23 93/255/23
f 98/256/24 99/257/24 100/234/24 97/233/24
f 96/254/25 90/244/25 92/245/25 93/255/25
f 78/258/1 77/259/1 89/260/1 90/261/1
f 79/262/8 80/263/8 92/264/8 91/265/8
f 82/266/8 81/267/8 94/268/8 93/269/8
f 86/270/1 85/271/1 96/272/1 95/273/1
f 88/274/1 87/275/1 98/276/1 97/277/1
f 84/278/8 83/279/8 100/280/8 99/281/8
f 85/271/1 78/258/1 90/261/1 96/272/1
f 80/263/8 82/266/8 93/269/8 92/264/8
f 81/267/26 75/282/26 101/283/26 94/268/26
f 73/284/1 86/270/1 95/273/1 102/285/1
f 87/275/27 74/286/27 103/287/27 98/276/27
f 76/288/28 84/278/28 99/281/28 104/289/28
f 83/279/29 79/262/29 91/265/29 100/280/29
f 77/259/1 88/274/1 97/277/1 89/260/1
f 76/290/30 74/291/30 87/292/30 84/293/30
f 119/294/15 116/295/15 115/296/15 120/297/15
f 130/298/16 131/299/16 136/300/16 135/301/16
f 115/296/17 111/302/17 109/303/17 120/297/17
f 121/304/18 123/305/18 132/306/18 129/307/18
f 134/308/31 133/309/31 126/310/31 127/311/31
f 111/302/3 112/312/3 110/313/3 109/303/3
f 110/313/20 112/312/20 114/314/20 117/315/20
f 122/316/5 124/317/5 123/305/5 121/304/5
f 117/315/21 114/314/21 113/318/21 118/319/21
f 118/320/22 113/321/22 107/322/22 105/323/22
f 126/324/23 125/325/23 128/326/23 127/327/23
f 130/328/24 129/307/24 132/306/24 131/329/24
f 128/326/25 125/325/25 124/317/25 122/316/25
f 110/330/32 122/331/32 121/332/32 109/333/32
f 111/334/27 123/335/27 124/336/27 112/337/27
f 114/338/33 125/339/33 126/340/33 113/341/33
f 118/342/34 127/343/34 128/344/34 117/345/34
f 120/346/8 129/347/8 130/348/8 119/349/8
f 116/350/33 131/351/33 132/352/33 115/353/33
f 117/345/35 128/344/35 122/331/35 110/330/35
f 112/337/36 124/336/36 125/339/36 114/338/36
f 113/341/37 126/340/37 133/354/37 107/355/37
f 105/356/38 134/357/38 127/343/38 118/342/38
f 119/349/39 130/348/39 135/358/39 106/359/39
f 108/360/40 136/361/40 131/351/40 116/350/40
f 115/353/41 132/352/41 123/335/41 111/334/41
f 109/333/8 121/332/8 129/347/8 120/346/8
f 108/362/30 116/363/30 119/364/30 106/365/30
f 102/366/5 144/367/5 139/221/5 103/220/5 74/368/5 73/369/5
f 70/215/11 141/370/11 142/218/11 69/216/11
f 61/371/42 139/372/42 140/373/42 62/374/42
f 145/375/8 141/191/8 138/194/8 146/376/8
f 52/377/1 62/374/1 140/373/1 137/378/1
f 146/379/3 138/169/3 137/172/3 143/380/3
f 53/381/3 146/379/3 143/380/3 50/382/3
f 68/383/8 145/375/8 146/376/8 53/384/8
f 67/205/5 57/385/5 144/367/5 102/366/5 101/386/5 148/206/5
f 141/370/43 145/203/43 148/206/43 142/218/43
f 139/372/10 144/201/10 147/182/10 140/373/10
f 137/378/1 140/373/1 147/182/1 143/181/1
f 148/206/5 101/386/5 75/387/5 76/388/5 104/219/5 142/218/5
f 76/388/5 74/368/5 103/220/5 104/219/5
f 101/386/5 102/366/5 73/369/5 75/387/5
f 75/387/5 73/369/5 74/368/5 76/388/5
f 160/389/12 153/207/12 154/188/12 157/390/12
f 159/391/44 151/199/44 152/154/44 156/392/44
f 158/393/3 149/195/3 150/198/3 155/394/3
f 133/395/5 157/390/5 154/188/5 136/187/5 108/396/5 107/397/5
f 155/398/1 150/173/1 153/176/1 160/399/1
f 158/400/8 156/392/8 152/154/8 149/153/8
f 49/401/8 60/402/8 156/392/8 158/400/8
f 54/403/1 155/398/1 160/399/1 66/404/1
f 59/405/5 65/406/5 157/390/5 133/395/5 134/407/5 159/408/5
f 49/409/3 158/393/3 155/394/3 54/410/3
f 59/411/44 159/391/44 156/392/44 60/402/44
f 66/412/12 160/389/12 157/390/12 65/406/12
f 159/408/5 134/407/5 105/413/5 106/414/5 135/186/5 151/185/5
f 106/414/5 108/396/5 136/187/5 135/186/5
f 134/407/5 133/395/5 107/397/5 105/413/5
f 105/413/5 107/397/5 108/396/5 106/414/5
